<svg width="491" height="97" viewBox="0 0 491 97" fill="none" xmlns="http://www.w3.org/2000/svg">
<g clip-path="url(#clip0_356_2767)">
<rect width="96.208" height="96.208" rx="20.7703" fill="#0B68F7"/>
<path d="M47.338 21.9766V21.9775H47.339L47.3399 21.9766L47.3409 21.9775C47.3429 21.9776 47.3448 21.9765 47.3468 21.9766L47.3458 21.9775C48.0663 21.9888 48.7638 22.2315 49.3351 22.6709C49.9078 23.1115 50.3235 23.7251 50.5186 24.4209L60.4835 59.8545L65.3839 46.791L65.4825 46.5557C65.7324 46.0175 66.1213 45.5537 66.6114 45.2139C67.1716 44.8255 67.837 44.6174 68.5186 44.6172H146.024C146.912 44.6172 147.764 44.9697 148.392 45.5977C149.02 46.2258 149.373 47.0785 149.373 47.9668C149.373 48.8549 149.02 49.7069 148.392 50.335C147.764 50.963 146.912 51.3154 146.024 51.3154H70.8399L63.1632 71.7812L63.1642 71.7822C62.9164 72.4433 62.4656 73.0095 61.877 73.3994C61.2886 73.7892 60.592 73.9837 59.8868 73.9541C59.1815 73.9244 58.503 73.6723 57.9493 73.2344C57.4648 72.8511 57.0973 72.3421 56.8849 71.7656L56.8028 71.5146L47.1251 37.0957L43.4132 48.9648C43.2005 49.6459 42.7759 50.2412 42.2013 50.6641C41.6983 51.0342 41.1034 51.255 40.4845 51.3047L40.2179 51.3154H-31.787C-32.6752 51.3154 -33.5271 50.9629 -34.1552 50.335C-34.7832 49.7069 -35.1365 48.8549 -35.1366 47.9668C-35.1366 47.0785 -34.7833 46.2258 -34.1552 45.5977C-33.5271 44.9697 -32.6752 44.6172 -31.787 44.6172H37.756L44.0948 24.3271L44.1856 24.0732C44.4209 23.4896 44.8164 22.9822 45.3292 22.6113C45.9115 22.1904 46.6139 21.9689 47.3321 21.9775L47.3331 21.9766H47.338Z" fill="white" stroke="white" stroke-width="1.03851"/>
</g>
<path d="M146.88 75.8656C141.295 75.8656 136.497 74.7486 132.486 72.5146C128.526 70.2299 125.48 67.0313 123.347 62.9188C121.215 58.7555 120.149 53.856 120.149 48.2204C120.149 44.0063 120.758 40.2238 121.976 36.8729C123.195 33.4712 124.947 30.5772 127.231 28.1909C129.516 25.7539 132.308 23.9007 135.609 22.6314C138.96 21.3114 142.717 20.6513 146.88 20.6513C149.672 20.6513 152.414 21.0067 155.105 21.7175C157.796 22.4283 160.157 23.4438 162.188 24.7638C163.254 25.4239 163.965 26.2362 164.32 27.2009C164.675 28.1148 164.752 29.0287 164.549 29.9425C164.345 30.8057 163.914 31.5419 163.254 32.1511C162.645 32.7604 161.858 33.1158 160.893 33.2173C159.979 33.2681 158.964 32.9381 157.847 32.2273C156.273 31.2118 154.572 30.4756 152.744 30.0187C150.916 29.5618 149.063 29.3333 147.185 29.3333C143.58 29.3333 140.533 30.0695 138.046 31.5419C135.558 33.0142 133.679 35.1466 132.41 37.9391C131.141 40.7315 130.506 44.1586 130.506 48.2204C130.506 52.2313 131.141 55.6584 132.41 58.5016C133.679 61.3449 135.558 63.5027 138.046 64.975C140.533 66.4474 143.58 67.1836 147.185 67.1836C149.114 67.1836 151.018 66.9551 152.896 66.4982C154.775 65.9905 156.552 65.2289 158.227 64.2135C159.344 63.5534 160.334 63.2742 161.198 63.3757C162.111 63.4265 162.873 63.7311 163.482 64.2896C164.092 64.8481 164.498 65.5589 164.701 66.422C164.904 67.2344 164.853 68.0975 164.549 69.0114C164.244 69.8745 163.635 70.6361 162.721 71.2961C160.69 72.7685 158.253 73.9109 155.41 74.7232C152.617 75.4848 149.774 75.8656 146.88 75.8656ZM185.468 75.8656C181.254 75.8656 178.081 74.6724 175.948 72.2862C173.816 69.8491 172.75 66.2951 172.75 61.6241V25.6016C172.75 24.0276 173.156 22.8345 173.968 22.0222C174.781 21.2098 175.948 20.8036 177.472 20.8036C178.995 20.8036 180.162 21.2098 180.975 22.0222C181.838 22.8345 182.269 24.0276 182.269 25.6016V61.1672C182.269 63.5027 182.752 65.2289 183.716 66.3459C184.732 67.4629 186.153 68.0213 187.981 68.0213C188.387 68.0213 188.768 68.0213 189.124 68.0213C189.479 67.9706 189.834 67.9198 190.19 67.869C190.901 67.7675 191.383 67.9706 191.637 68.4783C191.891 68.9352 192.018 69.8999 192.018 71.3723C192.018 72.6416 191.764 73.6316 191.256 74.3424C190.748 75.0532 189.911 75.4848 188.743 75.6371C188.235 75.6879 187.702 75.7387 187.144 75.7894C186.585 75.8402 186.027 75.8656 185.468 75.8656ZM201.791 75.6371C200.268 75.6371 199.1 75.1802 198.288 74.2663C197.476 73.3524 197.07 72.0831 197.07 70.4584V42.5085C197.07 40.8331 197.476 39.5638 198.288 38.7007C199.1 37.7868 200.268 37.3298 201.791 37.3298C203.315 37.3298 204.482 37.7868 205.295 38.7007C206.158 39.5638 206.589 40.8331 206.589 42.5085V70.4584C206.589 72.0831 206.183 73.3524 205.371 74.2663C204.558 75.1802 203.365 75.6371 201.791 75.6371ZM201.791 30.2472C200.014 30.2472 198.618 29.8156 197.603 28.9525C196.638 28.0386 196.156 26.7947 196.156 25.2208C196.156 23.5961 196.638 22.3522 197.603 21.489C198.618 20.6259 200.014 20.1944 201.791 20.1944C203.619 20.1944 205.015 20.6259 205.98 21.489C206.945 22.3522 207.427 23.5961 207.427 25.2208C207.427 26.7947 206.945 28.0386 205.98 28.9525C205.015 29.8156 203.619 30.2472 201.791 30.2472ZM221.203 75.7133C219.679 75.7133 218.512 75.3071 217.699 74.4947C216.887 73.6316 216.481 72.4131 216.481 70.8392V42.0516C216.481 40.4777 216.887 39.2845 217.699 38.4722C218.512 37.6598 219.654 37.2537 221.126 37.2537C222.599 37.2537 223.741 37.6598 224.554 38.4722C225.366 39.2845 225.772 40.4777 225.772 42.0516V47.2303L224.934 45.3264C226.051 42.6355 227.778 40.6046 230.113 39.2338C232.499 37.8122 235.19 37.1014 238.186 37.1014C241.181 37.1014 243.644 37.6598 245.573 38.7768C247.502 39.8938 248.949 41.5947 249.914 43.8794C250.879 46.1133 251.361 48.9566 251.361 52.409V70.8392C251.361 72.4131 250.955 73.6316 250.143 74.4947C249.33 75.3071 248.162 75.7133 246.639 75.7133C245.116 75.7133 243.923 75.3071 243.06 74.4947C242.248 73.6316 241.841 72.4131 241.841 70.8392V52.866C241.841 49.972 241.283 47.865 240.166 46.5449C239.1 45.2248 237.424 44.5648 235.139 44.5648C232.347 44.5648 230.113 45.4533 228.438 47.2303C226.813 48.9566 226.001 51.2667 226.001 54.1607V70.8392C226.001 74.0886 224.401 75.7133 221.203 75.7133ZM265.752 75.6371C264.229 75.6371 263.061 75.1802 262.249 74.2663C261.436 73.3524 261.03 72.0831 261.03 70.4584V42.5085C261.03 40.8331 261.436 39.5638 262.249 38.7007C263.061 37.7868 264.229 37.3298 265.752 37.3298C267.275 37.3298 268.443 37.7868 269.255 38.7007C270.118 39.5638 270.55 40.8331 270.55 42.5085V70.4584C270.55 72.0831 270.144 73.3524 269.331 74.2663C268.519 75.1802 267.326 75.6371 265.752 75.6371ZM265.752 30.2472C263.975 30.2472 262.579 29.8156 261.563 28.9525C260.599 28.0386 260.116 26.7947 260.116 25.2208C260.116 23.5961 260.599 22.3522 261.563 21.489C262.579 20.6259 263.975 20.1944 265.752 20.1944C267.58 20.1944 268.976 20.6259 269.941 21.489C270.905 22.3522 271.388 23.5961 271.388 25.2208C271.388 26.7947 270.905 28.0386 269.941 28.9525C268.976 29.8156 267.58 30.2472 265.752 30.2472ZM297.653 75.8656C293.744 75.8656 290.342 75.0786 287.448 73.5047C284.554 71.88 282.32 69.5953 280.746 66.6505C279.172 63.7057 278.385 60.2533 278.385 56.2931C278.385 53.2975 278.817 50.632 279.68 48.2965C280.594 45.9103 281.888 43.9048 283.564 42.2801C285.239 40.6046 287.27 39.3353 289.656 38.4722C292.043 37.5583 294.708 37.1014 297.653 37.1014C299.328 37.1014 301.131 37.3298 303.06 37.7868C305.04 38.2437 306.893 39.0053 308.62 40.0715C309.432 40.5792 309.965 41.1885 310.219 41.8993C310.473 42.6101 310.524 43.3463 310.371 44.1079C310.219 44.8187 309.889 45.4533 309.381 46.0118C308.924 46.5195 308.34 46.8495 307.63 47.0018C306.919 47.1034 306.132 46.9257 305.269 46.4687C304.152 45.8087 303.009 45.3264 301.842 45.0218C300.674 44.6663 299.557 44.4886 298.491 44.4886C296.815 44.4886 295.343 44.7679 294.074 45.3264C292.804 45.8341 291.713 46.5957 290.799 47.6111C289.936 48.5758 289.276 49.7943 288.819 51.2667C288.362 52.7391 288.133 54.4399 288.133 56.3692C288.133 60.1263 289.022 63.0965 290.799 65.2797C292.627 67.4121 295.191 68.4783 298.491 68.4783C299.557 68.4783 300.648 68.326 301.765 68.0213C302.933 67.7167 304.101 67.2344 305.269 66.5744C306.132 66.1174 306.893 65.9651 307.553 66.1174C308.264 66.2697 308.848 66.6251 309.305 67.1836C309.762 67.6913 310.041 68.326 310.143 69.0876C310.244 69.7984 310.143 70.5092 309.838 71.22C309.584 71.9308 309.077 72.5146 308.315 72.9716C306.64 73.987 304.863 74.7232 302.984 75.1802C301.105 75.6371 299.328 75.8656 297.653 75.8656ZM322.304 75.7133C320.73 75.7133 319.486 75.2817 318.572 74.4186C317.709 73.5047 317.277 72.21 317.277 70.5345V26.5916C317.277 24.9161 317.709 23.6469 318.572 22.7837C319.486 21.8698 320.78 21.4129 322.456 21.4129H349.035C350.355 21.4129 351.345 21.7429 352.005 22.4029C352.665 23.063 352.995 24.0023 352.995 25.2208C352.995 26.4901 352.665 27.4801 352.005 28.1909C351.345 28.851 350.355 29.181 349.035 29.181H327.025V44.3363H347.436C348.705 44.3363 349.67 44.6663 350.33 45.3264C351.04 45.9864 351.396 46.9257 351.396 48.1442C351.396 49.4135 351.04 50.4036 350.33 51.1144C349.67 51.7744 348.705 52.1044 347.436 52.1044H327.025V70.5345C327.025 73.987 325.451 75.7133 322.304 75.7133ZM374.895 75.8656C370.681 75.8656 367.508 74.6724 365.376 72.2862C363.243 69.8491 362.177 66.2951 362.177 61.6241V25.6016C362.177 24.0276 362.583 22.8345 363.395 22.0222C364.208 21.2098 365.376 20.8036 366.899 20.8036C368.422 20.8036 369.59 21.2098 370.402 22.0222C371.265 22.8345 371.697 24.0276 371.697 25.6016V61.1672C371.697 63.5027 372.179 65.2289 373.144 66.3459C374.159 67.4629 375.581 68.0213 377.408 68.0213C377.815 68.0213 378.195 68.0213 378.551 68.0213C378.906 67.9706 379.262 67.9198 379.617 67.869C380.328 67.7675 380.81 67.9706 381.064 68.4783C381.318 68.9352 381.445 69.8999 381.445 71.3723C381.445 72.6416 381.191 73.6316 380.683 74.3424C380.175 75.0532 379.338 75.4848 378.17 75.6371C377.662 75.6879 377.129 75.7387 376.571 75.7894C376.012 75.8402 375.454 75.8656 374.895 75.8656ZM403.108 75.8656C399.249 75.8656 395.898 75.0786 393.055 73.5047C390.212 71.9308 388.003 69.6968 386.43 66.8028C384.856 63.8581 384.069 60.4056 384.069 56.4454C384.069 53.4499 384.5 50.7843 385.363 48.4488C386.277 46.0626 387.572 44.0317 389.247 42.3562C390.923 40.63 392.928 39.3353 395.264 38.4722C397.599 37.5583 400.214 37.1014 403.108 37.1014C406.967 37.1014 410.318 37.8883 413.161 39.4622C416.004 41.0362 418.213 43.2701 419.787 46.1641C421.36 49.0581 422.147 52.4852 422.147 56.4454C422.147 59.4409 421.69 62.1318 420.777 64.5181C419.913 66.9044 418.644 68.9606 416.969 70.6869C415.293 72.3623 413.288 73.657 410.952 74.5709C408.617 75.434 406.002 75.8656 403.108 75.8656ZM403.108 68.6306C404.987 68.6306 406.637 68.1737 408.058 67.2598C409.48 66.3459 410.571 65.0004 411.333 63.2234C412.145 61.3956 412.552 59.1363 412.552 56.4454C412.552 52.3837 411.688 49.3627 409.962 47.3826C408.236 45.3518 405.951 44.3363 403.108 44.3363C401.229 44.3363 399.579 44.7933 398.158 45.7072C396.736 46.5703 395.619 47.9157 394.807 49.7435C394.045 51.5205 393.664 53.7545 393.664 56.4454C393.664 60.4564 394.528 63.5027 396.254 65.5843C397.98 67.6152 400.265 68.6306 403.108 68.6306ZM443.655 75.7133C442.386 75.7133 441.294 75.4086 440.38 74.7994C439.466 74.1393 438.73 73.1239 438.171 71.7531L427.129 43.5748C426.672 42.3562 426.519 41.29 426.672 40.3761C426.875 39.4115 427.357 38.6499 428.119 38.0914C428.88 37.5329 429.896 37.2537 431.165 37.2537C432.282 37.2537 433.196 37.5329 433.907 38.0914C434.617 38.5991 435.227 39.5892 435.734 41.0616L444.95 66.422H443.198L452.718 40.4523C453.124 39.3353 453.657 38.523 454.317 38.0153C455.028 37.5075 455.942 37.2537 457.059 37.2537C458.176 37.2537 459.089 37.5329 459.8 38.0914C460.511 38.5991 461.044 39.3861 461.4 40.4523L470.767 66.422H469.168L478.459 40.8331C478.967 39.4622 479.601 38.523 480.363 38.0153C481.175 37.5075 482.064 37.2537 483.028 37.2537C484.247 37.2537 485.186 37.5583 485.846 38.1676C486.506 38.7768 486.887 39.5638 486.988 40.5285C487.09 41.4423 486.912 42.4578 486.455 43.5748L475.489 71.7531C474.981 73.0731 474.245 74.0632 473.28 74.7232C472.366 75.3832 471.275 75.7133 470.005 75.7133C468.736 75.7133 467.619 75.3832 466.654 74.7232C465.741 74.0632 465.03 73.0731 464.522 71.7531L454.545 45.3264H458.886L449.138 71.6769C448.63 73.0477 447.92 74.0632 447.006 74.7232C446.092 75.3832 444.975 75.7133 443.655 75.7133Z" fill="white"/>
<defs>
<clipPath id="clip0_356_2767">
<rect width="96.208" height="96.208" rx="20.7703" fill="white"/>
</clipPath>
</defs>
</svg>
