<?xml version="1.0" standalone="no"?>
<!DOCTYPE svg PUBLIC "-//W3C//DTD SVG 20010904//EN"
 "http://www.w3.org/TR/2001/REC-SVG-20010904/DTD/svg10.dtd">
<svg version="1.0" xmlns="http://www.w3.org/2000/svg"
 width="401.000000pt" height="401.000000pt" viewBox="0 0 401.000000 401.000000"
 preserveAspectRatio="xMidYMid meet">

<g transform="translate(0.000000,401.000000) scale(0.100000,-0.100000)"
fill="#2b7fff" stroke="none">
<path d="M730 3998 c-363 -52 -669 -363 -719 -731 -7 -47 -11 -282 -11 -583
l0 -504 778 0 779 0 128 413 c71 226 135 424 142 439 37 77 155 112 222 66 19
-12 43 -35 53 -49 11 -15 104 -327 219 -734 110 -390 201 -710 203 -712 1 -2
45 109 96 246 99 267 116 295 189 320 24 8 209 11 618 11 l584 0 -4 548 c-4
621 -3 612 -86 787 -110 232 -303 393 -557 467 l-79 23 -1245 1 c-731 1 -1272
-2 -1310 -8z"/>
<path d="M1957 2360 c-3 -8 -34 -105 -68 -215 -37 -118 -72 -214 -87 -234 -47
-64 -6 -61 -947 -61 l-856 0 4 -557 c4 -623 4 -622 77 -779 48 -103 96 -174
168 -248 114 -117 257 -198 414 -236 81 -19 119 -20 1343 -20 1224 0 1262 1
1343 20 160 38 303 121 418 241 106 112 174 233 216 384 21 77 22 99 26 638
l3 557 -522 -2 -522 -3 -139 -370 c-76 -203 -150 -400 -164 -438 -29 -74 -68
-113 -129 -127 -71 -16 -156 29 -184 98 -6 15 -94 324 -196 687 -102 363 -187
665 -189 670 -2 6 -6 3 -9 -5z"/>
</g>
</svg>
